<?xml version="1.0" encoding="UTF-8"?>
<svg xmlns="http://www.w3.org/2000/svg" xmlns:xlink="http://www.w3.org/1999/xlink" width="636px" height="336px" viewBox="0 0 636 336" version="1.1">
  <metadata xmlns:gridsvg="http://www.stat.auckland.ac.nz/~paul/R/gridSVG/">
    <gridsvg:generator name="gridSVG" version="1.5-0" time="2016-01-24 09:59:34"/>
    <gridsvg:argument name="name" value="Bagatelle_2.svg"/>
    <gridsvg:argument name="exportCoords" value="none"/>
    <gridsvg:argument name="exportMappings" value="none"/>
    <gridsvg:argument name="exportJS" value="none"/>
    <gridsvg:argument name="res" value="72"/>
    <gridsvg:argument name="prefix" value=""/>
    <gridsvg:argument name="addClasses" value="FALSE"/>
    <gridsvg:argument name="indent" value="TRUE"/>
    <gridsvg:argument name="htmlWrapper" value="FALSE"/>
    <gridsvg:argument name="usePaths" value="vpPaths"/>
    <gridsvg:argument name="uniqueNames" value="TRUE"/>
    <gridsvg:separator name="id.sep" value="."/>
    <gridsvg:separator name="gPath.sep" value="::"/>
    <gridsvg:separator name="vpPath.sep" value="::"/>
  </metadata>
  <g transform="translate(0, 336) scale(1, -1)">
    <g id="gridSVG" fill="rgb(255,255,255)" stroke="rgb(0,0,0)" stroke-dasharray="none" stroke-width="0.75" font-size="12" font-family="Helvetica, Arial, FreeSans, Liberation Sans, Nimbus Sans L, sans-serif" opacity="1" stroke-linecap="round" stroke-linejoin="round" stroke-miterlimit="10" stroke-opacity="1" fill-opacity="1" font-weight="normal" font-style="normal">
      <g id="vp1.1">
        <defs>
          <clipPath id="vp1::vp2.1.clipPath">
            <rect x="15.6" y="0" width="604.8" height="336" fill="none" stroke="none"/>
          </clipPath>
        </defs>
        <g id="vp1::vp2.1" clip-path="url(#vp1::vp2.1.clipPath)">
          <g id="GRID.rect.2416.1">
            <rect id="GRID.rect.2416.1.1" x="15.6" y="0" width="604.8" height="336" fill="rgb(255,255,255)" fill-opacity="1"/>
          </g>
          <g id="GRID.pathgrob.2417.1">
            <path id="GRID.pathgrob.2417.1.1" d="M 106.32 302.4 L 166.8 302.4 L 136.56 253.9 Z M 166.8 302.4 L 227.28 302.4 L 197.04 253.9 Z M 227.28 302.4 L 287.76 302.4 L 257.52 253.9 Z M 287.76 302.4 L 348.24 302.4 L 318 253.9 L 318 253.9 L 317.99 255.12 L 317.94 256.35 L 317.87 257.57 L 317.77 258.78 L 317.64 260 L 317.48 261.21 L 317.3 262.42 L 317.08 263.63 L 316.84 264.83 L 316.57 266.02 L 316.27 267.21 L 315.94 268.4 L 315.58 269.57 L 315.2 270.74 L 314.79 271.9 L 314.35 273.06 L 313.89 274.2 L 313.4 275.33 L 312.88 276.46 L 312.33 277.57 L 311.76 278.67 L 311.17 279.76 L 310.54 280.84 L 309.9 281.9 L 309.23 282.95 L 308.53 283.99 L 307.81 285.01 L 307.06 286.02 L 306.29 287.02 L 305.5 287.99 L 304.69 288.95 L 303.85 289.9 L 302.99 290.83 L 302.11 291.74 L 301.21 292.63 L 300.29 293.5 L 299.34 294.35 L 298.38 295.19 L 297.4 296.01 L 296.4 296.8 L 295.38 297.58 L 294.34 298.33 L 293.28 299.06 L 292.21 299.78 L 291.12 300.46 L 290.02 301.13 L 288.9 301.78 L 287.76 302.4 Z M 348.24 302.4 L 408.72 302.4 L 378.48 253.9 Z M 408.72 302.4 L 469.2 302.4 L 438.96 253.9 L 438.96 253.9 L 438.95 255.12 L 438.9 256.35 L 438.83 257.57 L 438.73 258.78 L 438.6 260 L 438.44 261.21 L 438.26 262.42 L 438.04 263.63 L 437.8 264.83 L 437.53 266.02 L 437.23 267.21 L 436.9 268.4 L 436.54 269.57 L 436.16 270.74 L 435.75 271.9 L 435.31 273.06 L 434.85 274.2 L 434.36 275.33 L 433.84 276.46 L 433.29 277.57 L 432.72 278.67 L 432.13 279.76 L 431.5 280.84 L 430.86 281.9 L 430.19 282.95 L 429.49 283.99 L 428.77 285.01 L 428.02 286.02 L 427.25 287.02 L 426.46 287.99 L 425.65 288.95 L 424.81 289.9 L 423.95 290.83 L 423.07 291.74 L 422.17 292.63 L 421.25 293.5 L 420.3 294.35 L 419.34 295.19 L 418.36 296.01 L 417.36 296.8 L 416.34 297.58 L 415.3 298.33 L 414.24 299.06 L 413.17 299.78 L 412.08 300.46 L 410.98 301.13 L 409.86 301.78 L 408.72 302.4 Z M 76.08 253.9 L 136.56 253.9 L 106.32 205.41 L 106.32 205.41 L 106.31 206.63 L 106.26 207.85 L 106.19 209.07 L 106.09 210.29 L 105.96 211.5 L 105.8 212.71 L 105.62 213.92 L 105.4 215.13 L 105.16 216.33 L 104.89 217.53 L 104.59 218.72 L 104.26 219.9 L 103.9 221.08 L 103.52 222.24 L 103.11 223.41 L 102.67 224.56 L 102.21 225.7 L 101.72 226.84 L 101.2 227.96 L 100.65 229.07 L 100.08 230.17 L 99.49 231.26 L 98.86 232.34 L 98.22 233.41 L 97.55 234.46 L 96.85 235.49 L 96.13 236.52 L 95.38 237.53 L 94.61 238.52 L 93.82 239.5 L 93.01 240.46 L 92.17 241.4 L 91.31 242.33 L 90.43 243.24 L 89.53 244.13 L 88.61 245 L 87.66 245.86 L 86.7 246.69 L 85.72 247.51 L 84.72 248.3 L 83.7 249.08 L 82.66 249.83 L 81.6 250.57 L 80.53 251.28 L 79.44 251.97 L 78.34 252.64 L 77.22 253.28 L 76.08 253.9 Z M 136.56 253.9 L 197.04 253.9 L 166.8 205.41 Z M 197.04 253.9 L 257.52 253.9 L 227.28 205.41 Z M 257.52 253.9 L 318 253.9 L 287.76 205.41 L 287.76 205.41 L 286.62 206.03 L 285.5 206.67 L 284.4 207.34 L 283.31 208.03 L 282.24 208.74 L 281.18 209.47 L 280.14 210.23 L 279.12 211 L 278.12 211.8 L 277.14 212.62 L 276.18 213.45 L 275.23 214.3 L 274.31 215.18 L 273.41 216.07 L 272.53 216.98 L 271.67 217.91 L 270.83 218.85 L 270.02 219.81 L 269.23 220.79 L 268.46 221.78 L 267.71 222.79 L 266.99 223.81 L 266.29 224.85 L 265.62 225.9 L 264.98 226.97 L 264.35 228.04 L 263.76 229.13 L 263.19 230.24 L 262.64 231.35 L 262.12 232.47 L 261.63 233.61 L 261.17 234.75 L 260.73 235.9 L 260.32 237.06 L 259.94 238.23 L 259.58 239.41 L 259.25 240.59 L 258.95 241.78 L 258.68 242.98 L 258.44 244.18 L 258.22 245.38 L 258.04 246.59 L 257.88 247.81 L 257.75 249.02 L 257.65 250.24 L 257.58 251.46 L 257.53 252.68 L 257.52 253.9 Z M 318 253.9 L 378.48 253.9 L 348.24 205.41 L 348.24 205.41 L 347.1 206.03 L 345.98 206.67 L 344.88 207.34 L 343.79 208.03 L 342.72 208.74 L 341.66 209.47 L 340.62 210.23 L 339.6 211 L 338.6 211.8 L 337.62 212.62 L 336.66 213.45 L 335.71 214.3 L 334.79 215.18 L 333.89 216.07 L 333.01 216.98 L 332.15 217.91 L 331.31 218.85 L 330.5 219.81 L 329.71 220.79 L 328.94 221.78 L 328.19 222.79 L 327.47 223.81 L 326.77 224.85 L 326.1 225.9 L 325.46 226.97 L 324.83 228.04 L 324.24 229.13 L 323.67 230.24 L 323.12 231.35 L 322.6 232.47 L 322.11 233.61 L 321.65 234.75 L 321.21 235.9 L 320.8 237.06 L 320.42 238.23 L 320.06 239.41 L 319.73 240.59 L 319.43 241.78 L 319.16 242.98 L 318.92 244.18 L 318.7 245.38 L 318.52 246.59 L 318.36 247.81 L 318.23 249.02 L 318.13 250.24 L 318.06 251.46 L 318.01 252.68 L 318 253.9 Z M 378.48 253.9 L 438.96 253.9 L 408.72 205.41 Z M 438.96 253.9 L 499.44 253.9 L 469.2 205.41 L 469.2 205.41 L 468.06 206.03 L 466.94 206.67 L 465.84 207.34 L 464.75 208.03 L 463.68 208.74 L 462.62 209.47 L 461.58 210.23 L 460.56 211 L 459.56 211.8 L 458.58 212.62 L 457.62 213.45 L 456.67 214.3 L 455.75 215.18 L 454.85 216.07 L 453.97 216.98 L 453.11 217.91 L 452.27 218.85 L 451.46 219.81 L 450.67 220.79 L 449.9 221.78 L 449.15 222.79 L 448.43 223.81 L 447.73 224.85 L 447.06 225.9 L 446.42 226.97 L 445.79 228.04 L 445.2 229.13 L 444.63 230.24 L 444.08 231.35 L 443.56 232.47 L 443.07 233.61 L 442.61 234.75 L 442.17 235.9 L 441.76 237.06 L 441.38 238.23 L 441.02 239.41 L 440.69 240.59 L 440.39 241.78 L 440.12 242.98 L 439.88 244.18 L 439.66 245.38 L 439.48 246.59 L 439.32 247.81 L 439.19 249.02 L 439.09 250.24 L 439.02 251.46 L 438.97 252.68 L 438.96 253.9 Z M 499.44 253.9 L 559.92 253.9 L 529.68 205.41 Z M 106.32 205.41 L 166.8 205.41 L 136.56 156.91 L 136.56 156.91 L 135.42 157.53 L 134.3 158.18 L 133.2 158.84 L 132.11 159.53 L 131.04 160.24 L 129.98 160.98 L 128.94 161.73 L 127.92 162.51 L 126.92 163.3 L 125.94 164.12 L 124.98 164.95 L 124.03 165.81 L 123.11 166.68 L 122.21 167.57 L 121.33 168.48 L 120.47 169.41 L 119.63 170.35 L 118.82 171.31 L 118.03 172.29 L 117.26 173.28 L 116.51 174.29 L 115.79 175.32 L 115.09 176.35 L 114.42 177.41 L 113.78 178.47 L 113.15 179.55 L 112.56 180.64 L 111.99 181.74 L 111.44 182.85 L 110.92 183.97 L 110.43 185.11 L 109.97 186.25 L 109.53 187.4 L 109.12 188.57 L 108.74 189.73 L 108.38 190.91 L 108.05 192.09 L 107.75 193.28 L 107.48 194.48 L 107.24 195.68 L 107.02 196.89 L 106.84 198.1 L 106.68 199.31 L 106.55 200.52 L 106.45 201.74 L 106.38 202.96 L 106.33 204.18 L 106.32 205.41 Z M 166.8 205.41 L 227.28 205.41 L 197.04 156.91 Z M 227.28 205.41 L 287.76 205.41 L 257.52 156.91 L 257.52 156.91 L 257.51 158.13 L 257.46 159.35 L 257.39 160.57 L 257.29 161.79 L 257.16 163 L 257 164.22 L 256.82 165.43 L 256.6 166.63 L 256.36 167.83 L 256.09 169.03 L 255.79 170.22 L 255.46 171.4 L 255.1 172.58 L 254.72 173.75 L 254.31 174.91 L 253.87 176.06 L 253.41 177.2 L 252.92 178.34 L 252.4 179.46 L 251.85 180.57 L 251.28 181.68 L 250.69 182.77 L 250.06 183.84 L 249.42 184.91 L 248.75 185.96 L 248.05 187 L 247.33 188.02 L 246.58 189.03 L 245.81 190.02 L 245.02 191 L 244.21 191.96 L 243.37 192.9 L 242.51 193.83 L 241.63 194.74 L 240.73 195.63 L 239.81 196.51 L 238.86 197.36 L 237.9 198.2 L 236.92 199.01 L 235.92 199.81 L 234.9 200.58 L 233.86 201.34 L 232.8 202.07 L 231.73 202.78 L 230.64 203.47 L 229.54 204.14 L 228.42 204.78 L 227.28 205.41 Z M 287.76 205.41 L 348.24 205.41 L 318 156.91 L 318 156.91 L 317.99 158.13 L 317.94 159.35 L 317.87 160.57 L 317.77 161.79 L 317.64 163 L 317.48 164.22 L 317.3 165.43 L 317.08 166.63 L 316.84 167.83 L 316.57 169.03 L 316.27 170.22 L 315.94 171.4 L 315.58 172.58 L 315.2 173.75 L 314.79 174.91 L 314.35 176.06 L 313.89 177.2 L 313.4 178.34 L 312.88 179.46 L 312.33 180.57 L 311.76 181.68 L 311.17 182.77 L 310.54 183.84 L 309.9 184.91 L 309.23 185.96 L 308.53 187 L 307.81 188.02 L 307.06 189.03 L 306.29 190.02 L 305.5 191 L 304.69 191.96 L 303.85 192.9 L 302.99 193.83 L 302.11 194.74 L 301.21 195.63 L 300.29 196.51 L 299.34 197.36 L 298.38 198.2 L 297.4 199.01 L 296.4 199.81 L 295.38 200.58 L 294.34 201.34 L 293.28 202.07 L 292.21 202.78 L 291.12 203.47 L 290.02 204.14 L 288.9 204.78 L 287.76 205.41 Z M 348.24 205.41 L 408.72 205.41 L 378.48 156.91 L 378.48 156.91 L 378.47 158.13 L 378.42 159.35 L 378.35 160.57 L 378.25 161.79 L 378.12 163 L 377.96 164.22 L 377.78 165.43 L 377.56 166.63 L 377.32 167.83 L 377.05 169.03 L 376.75 170.22 L 376.42 171.4 L 376.06 172.58 L 375.68 173.75 L 375.27 174.91 L 374.83 176.06 L 374.37 177.2 L 373.88 178.34 L 373.36 179.46 L 372.81 180.57 L 372.24 181.68 L 371.65 182.77 L 371.02 183.84 L 370.38 184.91 L 369.71 185.96 L 369.01 187 L 368.29 188.02 L 367.54 189.03 L 366.77 190.02 L 365.98 191 L 365.17 191.96 L 364.33 192.9 L 363.47 193.83 L 362.59 194.74 L 361.69 195.63 L 360.77 196.51 L 359.82 197.36 L 358.86 198.2 L 357.88 199.01 L 356.88 199.81 L 355.86 200.58 L 354.82 201.34 L 353.76 202.07 L 352.69 202.78 L 351.6 203.47 L 350.5 204.14 L 349.38 204.78 L 348.24 205.41 Z M 408.72 205.41 L 469.2 205.41 L 438.96 156.91 Z M 469.2 205.41 L 529.68 205.41 L 499.44 156.91 L 499.44 156.91 L 499.43 158.13 L 499.38 159.35 L 499.31 160.57 L 499.21 161.79 L 499.08 163 L 498.92 164.22 L 498.74 165.43 L 498.52 166.63 L 498.28 167.83 L 498.01 169.03 L 497.71 170.22 L 497.38 171.4 L 497.02 172.58 L 496.64 173.75 L 496.23 174.91 L 495.79 176.06 L 495.33 177.2 L 494.84 178.34 L 494.32 179.46 L 493.77 180.57 L 493.2 181.68 L 492.61 182.77 L 491.98 183.84 L 491.34 184.91 L 490.67 185.96 L 489.97 187 L 489.25 188.02 L 488.5 189.03 L 487.73 190.02 L 486.94 191 L 486.13 191.96 L 485.29 192.9 L 484.43 193.83 L 483.55 194.74 L 482.65 195.63 L 481.73 196.51 L 480.78 197.36 L 479.82 198.2 L 478.84 199.01 L 477.84 199.81 L 476.82 200.58 L 475.78 201.34 L 474.72 202.07 L 473.65 202.78 L 472.56 203.47 L 471.46 204.14 L 470.34 204.78 L 469.2 205.41 Z M 529.68 205.41 L 590.16 205.41 L 559.92 156.91 Z M 76.08 156.91 L 136.56 156.91 L 106.32 108.41 Z M 136.56 156.91 L 197.04 156.91 L 166.8 108.41 Z M 197.04 156.91 L 257.52 156.91 L 227.28 108.41 L 227.28 108.41 L 226.14 109.03 L 225.02 109.68 L 223.92 110.35 L 222.83 111.04 L 221.76 111.75 L 220.7 112.48 L 219.66 113.23 L 218.64 114.01 L 217.64 114.8 L 216.66 115.62 L 215.7 116.46 L 214.75 117.31 L 213.83 118.18 L 212.93 119.07 L 212.05 119.98 L 211.19 120.91 L 210.35 121.86 L 209.54 122.82 L 208.75 123.79 L 207.98 124.79 L 207.23 125.8 L 206.51 126.82 L 205.81 127.86 L 205.14 128.91 L 204.5 129.97 L 203.87 131.05 L 203.28 132.14 L 202.71 133.24 L 202.16 134.35 L 201.64 135.48 L 201.15 136.61 L 200.69 137.75 L 200.25 138.91 L 199.84 140.07 L 199.46 141.24 L 199.1 142.41 L 198.77 143.6 L 198.47 144.79 L 198.2 145.98 L 197.96 147.18 L 197.74 148.39 L 197.56 149.6 L 197.4 150.81 L 197.27 152.03 L 197.17 153.25 L 197.1 154.47 L 197.05 155.69 L 197.04 156.91 Z M 257.52 156.91 L 318 156.91 L 287.76 108.41 L 287.76 108.41 L 286.62 109.03 L 285.5 109.68 L 284.4 110.35 L 283.31 111.04 L 282.24 111.75 L 281.18 112.48 L 280.14 113.23 L 279.12 114.01 L 278.12 114.8 L 277.14 115.62 L 276.18 116.46 L 275.23 117.31 L 274.31 118.18 L 273.41 119.07 L 272.53 119.98 L 271.67 120.91 L 270.83 121.86 L 270.02 122.82 L 269.23 123.79 L 268.46 124.79 L 267.71 125.8 L 266.99 126.82 L 266.29 127.86 L 265.62 128.91 L 264.98 129.97 L 264.35 131.05 L 263.76 132.14 L 263.19 133.24 L 262.64 134.35 L 262.12 135.48 L 261.63 136.61 L 261.17 137.75 L 260.73 138.91 L 260.32 140.07 L 259.94 141.24 L 259.58 142.41 L 259.25 143.6 L 258.95 144.79 L 258.68 145.98 L 258.44 147.18 L 258.22 148.39 L 258.04 149.6 L 257.88 150.81 L 257.75 152.03 L 257.65 153.25 L 257.58 154.47 L 257.53 155.69 L 257.52 156.91 Z M 318 156.91 L 378.48 156.91 L 348.24 108.41 L 348.24 108.41 L 347.1 109.03 L 345.98 109.68 L 344.88 110.35 L 343.79 111.04 L 342.72 111.75 L 341.66 112.48 L 340.62 113.23 L 339.6 114.01 L 338.6 114.8 L 337.62 115.62 L 336.66 116.46 L 335.71 117.31 L 334.79 118.18 L 333.89 119.07 L 333.01 119.98 L 332.15 120.91 L 331.31 121.86 L 330.5 122.82 L 329.71 123.79 L 328.94 124.79 L 328.19 125.8 L 327.47 126.82 L 326.77 127.86 L 326.1 128.91 L 325.46 129.97 L 324.83 131.05 L 324.24 132.14 L 323.67 133.24 L 323.12 134.35 L 322.6 135.48 L 322.11 136.61 L 321.65 137.75 L 321.21 138.91 L 320.8 140.07 L 320.42 141.24 L 320.06 142.41 L 319.73 143.6 L 319.43 144.79 L 319.16 145.98 L 318.92 147.18 L 318.7 148.39 L 318.52 149.6 L 318.36 150.81 L 318.23 152.03 L 318.13 153.25 L 318.06 154.47 L 318.01 155.69 L 318 156.91 Z M 378.48 156.91 L 438.96 156.91 L 408.72 108.41 L 408.72 108.41 L 407.58 109.03 L 406.46 109.68 L 405.36 110.35 L 404.27 111.04 L 403.2 111.75 L 402.14 112.48 L 401.1 113.23 L 400.08 114.01 L 399.08 114.8 L 398.1 115.62 L 397.14 116.46 L 396.19 117.31 L 395.27 118.18 L 394.37 119.07 L 393.49 119.98 L 392.63 120.91 L 391.79 121.86 L 390.98 122.82 L 390.19 123.79 L 389.42 124.79 L 388.67 125.8 L 387.95 126.82 L 387.25 127.86 L 386.58 128.91 L 385.94 129.97 L 385.31 131.05 L 384.72 132.14 L 384.15 133.24 L 383.6 134.35 L 383.08 135.48 L 382.59 136.61 L 382.13 137.75 L 381.69 138.91 L 381.28 140.07 L 380.9 141.24 L 380.54 142.41 L 380.21 143.6 L 379.91 144.79 L 379.64 145.98 L 379.4 147.18 L 379.18 148.39 L 379 149.6 L 378.84 150.81 L 378.71 152.03 L 378.61 153.25 L 378.54 154.47 L 378.49 155.69 L 378.48 156.91 Z M 438.96 156.91 L 499.44 156.91 L 469.2 108.41 Z M 499.44 156.91 L 559.92 156.91 L 529.68 108.41 L 529.68 108.41 L 528.54 109.03 L 527.42 109.68 L 526.32 110.35 L 525.23 111.04 L 524.16 111.75 L 523.1 112.48 L 522.06 113.23 L 521.04 114.01 L 520.04 114.8 L 519.06 115.62 L 518.1 116.46 L 517.15 117.31 L 516.23 118.18 L 515.33 119.07 L 514.45 119.98 L 513.59 120.91 L 512.75 121.86 L 511.94 122.82 L 511.15 123.79 L 510.38 124.79 L 509.63 125.8 L 508.91 126.82 L 508.21 127.86 L 507.54 128.91 L 506.9 129.97 L 506.27 131.05 L 505.68 132.14 L 505.11 133.24 L 504.56 134.35 L 504.04 135.48 L 503.55 136.61 L 503.09 137.75 L 502.65 138.91 L 502.24 140.07 L 501.86 141.24 L 501.5 142.41 L 501.17 143.6 L 500.87 144.79 L 500.6 145.98 L 500.36 147.18 L 500.14 148.39 L 499.96 149.6 L 499.8 150.81 L 499.67 152.03 L 499.57 153.25 L 499.5 154.47 L 499.45 155.69 L 499.44 156.91 Z M 166.8 108.41 L 227.28 108.41 L 197.04 59.91 L 197.04 59.91 L 197.03 61.13 L 196.98 62.36 L 196.91 63.58 L 196.81 64.79 L 196.68 66.01 L 196.52 67.22 L 196.34 68.43 L 196.12 69.64 L 195.88 70.84 L 195.61 72.03 L 195.31 73.22 L 194.98 74.41 L 194.62 75.58 L 194.24 76.75 L 193.83 77.91 L 193.39 79.07 L 192.93 80.21 L 192.44 81.34 L 191.92 82.47 L 191.37 83.58 L 190.8 84.68 L 190.21 85.77 L 189.58 86.85 L 188.94 87.91 L 188.27 88.96 L 187.57 90 L 186.85 91.02 L 186.1 92.03 L 185.33 93.03 L 184.54 94 L 183.73 94.96 L 182.89 95.91 L 182.03 96.84 L 181.15 97.75 L 180.25 98.64 L 179.33 99.51 L 178.38 100.37 L 177.42 101.2 L 176.44 102.02 L 175.44 102.81 L 174.42 103.59 L 173.38 104.34 L 172.32 105.07 L 171.25 105.79 L 170.16 106.48 L 169.06 107.14 L 167.94 107.79 L 166.8 108.41 Z M 227.28 108.41 L 287.76 108.41 L 257.52 59.91 L 257.52 59.91 L 257.51 61.13 L 257.46 62.36 L 257.39 63.58 L 257.29 64.79 L 257.16 66.01 L 257 67.22 L 256.82 68.43 L 256.6 69.64 L 256.36 70.84 L 256.09 72.03 L 255.79 73.22 L 255.46 74.41 L 255.1 75.58 L 254.72 76.75 L 254.31 77.91 L 253.87 79.07 L 253.41 80.21 L 252.92 81.34 L 252.4 82.47 L 251.85 83.58 L 251.28 84.68 L 250.69 85.77 L 250.06 86.85 L 249.42 87.91 L 248.75 88.96 L 248.05 90 L 247.33 91.02 L 246.58 92.03 L 245.81 93.03 L 245.02 94 L 244.21 94.96 L 243.37 95.91 L 242.51 96.84 L 241.63 97.75 L 240.73 98.64 L 239.81 99.51 L 238.86 100.37 L 237.9 101.2 L 236.92 102.02 L 235.92 102.81 L 234.9 103.59 L 233.86 104.34 L 232.8 105.07 L 231.73 105.79 L 230.64 106.48 L 229.54 107.14 L 228.42 107.79 L 227.28 108.41 Z M 287.76 108.41 L 348.24 108.41 L 318 59.91 L 318 59.91 L 317.99 61.13 L 317.94 62.36 L 317.87 63.58 L 317.77 64.79 L 317.64 66.01 L 317.48 67.22 L 317.3 68.43 L 317.08 69.64 L 316.84 70.84 L 316.57 72.03 L 316.27 73.22 L 315.94 74.41 L 315.58 75.58 L 315.2 76.75 L 314.79 77.91 L 314.35 79.07 L 313.89 80.21 L 313.4 81.34 L 312.88 82.47 L 312.33 83.58 L 311.76 84.68 L 311.17 85.77 L 310.54 86.85 L 309.9 87.91 L 309.23 88.96 L 308.53 90 L 307.81 91.02 L 307.06 92.03 L 306.29 93.03 L 305.5 94 L 304.69 94.96 L 303.85 95.91 L 302.99 96.84 L 302.11 97.75 L 301.21 98.64 L 300.29 99.51 L 299.34 100.37 L 298.38 101.2 L 297.4 102.02 L 296.4 102.81 L 295.38 103.59 L 294.34 104.34 L 293.28 105.07 L 292.21 105.79 L 291.12 106.48 L 290.02 107.14 L 288.9 107.79 L 287.76 108.41 Z M 348.24 108.41 L 408.72 108.41 L 378.48 59.91 Z M 408.72 108.41 L 469.2 108.41 L 438.96 59.91 L 438.96 59.91 L 437.82 60.54 L 436.7 61.18 L 435.6 61.85 L 434.51 62.54 L 433.44 63.25 L 432.38 63.98 L 431.34 64.74 L 430.32 65.51 L 429.32 66.31 L 428.34 67.12 L 427.38 67.96 L 426.43 68.81 L 425.51 69.69 L 424.61 70.58 L 423.73 71.49 L 422.87 72.41 L 422.03 73.36 L 421.22 74.32 L 420.43 75.3 L 419.66 76.29 L 418.91 77.3 L 418.19 78.32 L 417.49 79.36 L 416.82 80.41 L 416.18 81.47 L 415.55 82.55 L 414.96 83.64 L 414.39 84.74 L 413.84 85.86 L 413.32 86.98 L 412.83 88.11 L 412.37 89.26 L 411.93 90.41 L 411.52 91.57 L 411.14 92.74 L 410.78 93.92 L 410.45 95.1 L 410.15 96.29 L 409.88 97.49 L 409.64 98.69 L 409.42 99.89 L 409.24 101.1 L 409.08 102.31 L 408.95 103.53 L 408.85 104.75 L 408.78 105.97 L 408.73 107.19 L 408.72 108.41 Z M 469.2 108.41 L 529.68 108.41 L 499.44 59.91 Z" fill-rule="nonzero" fill="rgb(0,0,0)" fill-opacity="1"/>
          </g>
        </g>
      </g>
    </g>
  </g>
</svg>